<svg viewBox="0 0 800 258" xmlns="http://www.w3.org/2000/svg">
  <path d="M0 0h800v258H0z" fill="#fff"/>
  <path d="M92 60h106c7.77 0 14.245 5.537 15.696 12.881-4.731 9.418-10.958 17.973-18.4 25.415-13.102 13.102-29.654 22.438-48.296 26.476V79h-4v46.551A99.655 99.655 0 0 1 126 127v4c5.813 0 11.491.496 17 1.449V179h4v-45.772c18.642 4.038 35.194 13.374 48.296 26.476 7.442 7.442 13.669 15.997 18.4 25.415C212.245 192.463 205.77 198 198 198H92c-8.837 0-16-7.163-16-16V76c0-8.837 7.163-16 16-16Z" fill="#ffa600"/>
  <path d="M198.125 101.125A101.955 101.955 0 0 0 214 80.541v96.918a101.955 101.955 0 0 0-15.875-20.584C184.476 143.227 166.73 133.353 147 129.19v-.38c19.73-4.163 37.476-14.037 51.125-27.685Z" fill="#9a9a9a"/>
  <path d="M322.301 200.5h19l-48-79 42.4-61h-19.8l-31.6 47.2-10.4 16.8v-64h-16.4v140h16.4v-50.8l9.6-14 38.8 64.8ZM384.3 92.7c-20.4 0-33.8 12.2-34.6 31.4h15.8c.8-10.6 8.2-16.2 18.4-16.2 12 0 17.8 7.6 17.8 21.4v9.2h-18c-23 0-37.2 11.2-37.2 32 0 20.2 13.6 32.6 32.8 32.6 11.8 0 19.4-5.4 24-12.6l1.2 10h13v-71.4c0-22.8-12-36.4-33.2-36.4Zm17.4 77.2c0 11-7.4 18.6-19.4 18.6-12 0-19.8-6.2-19.8-17.8 0-11.8 7.4-18.2 21-18.2h18.2v17.4Zm79.6-77.2c-12.4 0-21.4 5.8-26.8 15l-2-12.4h-11.8v105.2h15.6v-64.4c0-18 8.4-28.4 21-28.4 12 0 17.2 8.4 17.2 27.4v65.4h15.6v-66.6c0-28.8-11.2-41.2-28.8-41.2Zm58.8-16c6.4 0 11-4.6 11-10.8 0-6.6-4.6-11-11-11-6.6 0-11 4.4-11 11 0 6.4 4.4 10.8 11 10.8Zm-7.8 123.8h15.8V95.3h-15.8v105.2Zm95.2 0h18.4l-39.4-62.8 34.2-42.4h-19l-34.8 44.2V55.7h-15.6v144.8h15.6v-40.8l9-10 31.6 50.8Zm57.999 2.4c22 0 36-13.8 36-39v-32.2c0-25.2-14-39-36-39s-36.2 13.8-36.2 39v32.2c0 25.2 14.2 39 36.2 39Zm0-15.2c-12.6 0-20.2-7.4-20.2-23.8v-32.2c0-16.4 7.6-23.6 20.2-23.6s20.2 7.2 20.2 23.6v32.2c0 16.4-7.6 23.8-20.2 23.8Z" fill="#9a9a9a"/>
</svg>
